<svg xmlns="http://www.w3.org/2000/svg" xmlns:xlink="http://www.w3.org/1999/xlink" width="67" height="67" viewBox="0 0 67 67">
  <defs>
    <filter id="Path_214" x="0" y="0" width="67" height="67" filterUnits="userSpaceOnUse">
      <feOffset dx="-2" dy="3" input="SourceAlpha"/>
      <feGaussianBlur stdDeviation="2.5" result="blur"/>
      <feFlood flood-opacity="0.161"/>
      <feComposite operator="in" in2="blur"/>
      <feComposite in="SourceGraphic"/>
    </filter>
  </defs>
  <g id="Group_32" data-name="Group 32" transform="translate(-924.5 -465.5)">
    <g transform="matrix(1, 0, 0, 1, 924.5, 465.5)" filter="url(#Path_214)">
      <g id="Path_214-2" data-name="Path 214" transform="translate(9.5 4.5)" fill="#fff">
        <path d="M 26 51.5 C 22.55730056762695 51.5 19.21784973144531 50.82585144042969 16.07439994812012 49.49628829956055 C 13.03794002532959 48.21197128295898 10.31081962585449 46.37326049804688 7.968780040740967 44.03121948242188 C 5.626739978790283 41.68917846679688 3.788029909133911 38.96205902099609 2.503710031509399 35.92559814453125 C 1.174149990081787 32.78215026855469 0.5 29.44269943237305 0.5 26 C 0.5 22.55730056762695 1.174149990081787 19.21784973144531 2.503710031509399 16.07439994812012 C 3.788029909133911 13.03794002532959 5.626739978790283 10.31081962585449 7.968780040740967 7.968780040740967 C 10.31081962585449 5.626739978790283 13.03794002532959 3.788029909133911 16.07439994812012 2.503710031509399 C 19.21784973144531 1.174149990081787 22.55730056762695 0.5 26 0.5 C 29.44269943237305 0.5 32.78215026855469 1.174149990081787 35.92559814453125 2.503710031509399 C 38.96205902099609 3.788029909133911 41.68917846679688 5.626739978790283 44.03121948242188 7.968780040740967 C 46.37326049804688 10.31081962585449 48.21197128295898 13.03794002532959 49.49628829956055 16.07439994812012 C 50.82585144042969 19.21784973144531 51.5 22.55730056762695 51.5 26 C 51.5 29.44269943237305 50.82585144042969 32.78215026855469 49.49628829956055 35.92559814453125 C 48.21197128295898 38.96205902099609 46.37326049804688 41.68917846679688 44.03121948242188 44.03121948242188 C 41.68917846679688 46.37326049804688 38.96205902099609 48.21197128295898 35.92559814453125 49.49628829956055 C 32.78215026855469 50.82585144042969 29.44269943237305 51.5 26 51.5 Z" stroke="none"/>
        <path d="M 26 1 C 22.62458038330078 1 19.35065841674805 1.660858154296875 16.26918029785156 2.964210510253906 C 13.29232025146484 4.223320007324219 10.61861038208008 6.026050567626953 8.322330474853516 8.322330474853516 C 6.026050567626953 10.61861038208008 4.223320007324219 13.29232025146484 2.964210510253906 16.26918029785156 C 1.660858154296875 19.35065841674805 1 22.62458038330078 1 26 C 1 29.37541961669922 1.660858154296875 32.64933776855469 2.964210510253906 35.73081970214844 C 4.223320007324219 38.70767974853516 6.026050567626953 41.38138961791992 8.322330474853516 43.67766952514648 C 10.61861038208008 45.97394943237305 13.29232025146484 47.77667999267578 16.26918029785156 49.03578948974609 C 19.35065841674805 50.33914184570312 22.62458038330078 51 26 51 C 29.37541961669922 51 32.64933776855469 50.33914184570312 35.73081970214844 49.03578948974609 C 38.70767974853516 47.77667999267578 41.38138961791992 45.97394943237305 43.67766952514648 43.67766952514648 C 45.97394943237305 41.38138961791992 47.77667999267578 38.70767974853516 49.03578948974609 35.73081970214844 C 50.33914184570312 32.64933776855469 51 29.37541961669922 51 26 C 51 22.62458038330078 50.33914184570312 19.35065841674805 49.03578948974609 16.26918029785156 C 47.77667999267578 13.29232025146484 45.97394943237305 10.61861038208008 43.67766952514648 8.322330474853516 C 41.38138961791992 6.026050567626953 38.70767974853516 4.223320007324219 35.73081970214844 2.964210510253906 C 32.64933776855469 1.660858154296875 29.37541961669922 1 26 1 M 26 0 C 40.35939788818359 0 52 11.64059829711914 52 26 C 52 40.35939788818359 40.35939788818359 52 26 52 C 11.64059829711914 52 0 40.35939788818359 0 26 C 0 11.64059829711914 11.64059829711914 0 26 0 Z" stroke="none" fill="#707070"/>
      </g>
    </g>
    <g id="Component_1" data-name="Component 1" transform="translate(944 480)">
      <g id="Group_31" data-name="Group 31">
        <g id="Rectangle_184" data-name="Rectangle 184" fill="none" stroke="#1e3546" stroke-width="1">
          <rect width="27.093" height="33" rx="5" stroke="none"/>
          <rect x="0.5" y="0.5" width="26.093" height="32" rx="4.5" fill="none"/>
        </g>
        <rect id="Rectangle_185" data-name="Rectangle 185" width="11" height="1.5" rx="0.75" transform="translate(3.87 3.952)" fill="#22435c"/>
        <rect id="Rectangle_186" data-name="Rectangle 186" width="7.944" height="1.426" rx="0.713" transform="translate(3.87 6.396)" fill="#22435c"/>
        <rect id="Rectangle_185-2" data-name="Rectangle 185" width="19.148" height="1.222" rx="0.611" transform="translate(3.87 10.389)" fill="#22435c"/>
        <rect id="Rectangle_185-3" data-name="Rectangle 185" width="19.148" height="1.222" rx="0.611" transform="translate(3.87 14.667)" fill="#22435c"/>
        <rect id="Rectangle_185-4" data-name="Rectangle 185" width="19.148" height="1.426" rx="0.713" transform="translate(3.87 18.741)" fill="#22435c"/>
        <rect id="Rectangle_185-5" data-name="Rectangle 185" width="19.148" height="1.222" rx="0.611" transform="translate(3.87 23.019)" fill="#22435c"/>
        <rect id="Rectangle_185-6" data-name="Rectangle 185" width="11" height="1.222" rx="0.611" transform="translate(3.87 27.296)" fill="#22435c"/>
      </g>
      <g id="Group_30" data-name="Group 30" transform="translate(22.819 5.144)">
        <rect id="Rectangle_190" data-name="Rectangle 190" width="1.346" height="5.062" rx="0.673" transform="translate(1.395 16.798) rotate(16)" fill="#1e3546"/>
        <path id="Path_205" data-name="Path 205" d="M0,0H.064A1.922,1.922,0,0,1,1.986,1.922V9.1" transform="translate(7.754 3.224) rotate(16)" fill="none" stroke="#1e3546" stroke-width="1"/>
        <rect id="Rectangle_189" data-name="Rectangle 189" width="2.755" height="14.865" rx="1.378" transform="translate(4.197 4.47) rotate(16)" fill="#22435c"/>
        <path id="Rectangle_188" data-name="Rectangle 188" d="M1.954,0h0A1.954,1.954,0,0,1,3.909,1.954V9.1a0,0,0,0,1,0,0H0a0,0,0,0,1,0,0V1.954A1.954,1.954,0,0,1,1.954,0Z" transform="translate(4.879 0) rotate(16)" fill="#1e3546"/>
      </g>
    </g>
  </g>
</svg>
