<svg xmlns="http://www.w3.org/2000/svg" width="12.271" height="16.539" viewBox="0 0 12.271 16.539">
  <g id="icon-location" transform="translate(0.5 0.5)">
    <path id="icon-location-2" data-name="icon-location" d="M711.155,188a5.635,5.635,0,0,0-4.49,9.041.7.7,0,0,0,.05.09l4.067,6.174a.414.414,0,0,0,.744,0l4.067-6.174a.661.661,0,0,0,.05-.09A5.635,5.635,0,0,0,711.155,188Zm0,7.935a2.626,2.626,0,1,1,2.625-2.626,2.626,2.626,0,0,1-2.625,2.626Z" transform="translate(-705.52 -188)" fill="#45817e" stroke="#f5f5f5" stroke-width="1"/>
  </g>
</svg>
