<svg xmlns="http://www.w3.org/2000/svg" width="17.683" height="24" viewBox="0 0 17.683 24">
  <g id="icon-location" transform="translate(0.5 0.5)">
    <path id="icon-location-2" data-name="icon-location" d="M713.861,188a8.341,8.341,0,0,0-6.645,13.383,1,1,0,0,0,.074.133l6.02,9.139a.612.612,0,0,0,1.1,0l6.02-9.139a1.013,1.013,0,0,0,.074-.133A8.341,8.341,0,0,0,713.861,188Zm0,11.745a3.887,3.887,0,1,1,3.886-3.887,3.887,3.887,0,0,1-3.886,3.887Z" transform="translate(-705.52 -188)" fill="none" stroke="#8dcd89" stroke-width="1"/>
  </g>
</svg>
