<svg xmlns="http://www.w3.org/2000/svg" width="20.337" height="24.474" viewBox="0 0 20.337 24.474">
  <g id="Icon-Phone" transform="translate(0.181 0.64)">
    <g id="phone-icon" transform="translate(0.206 2.235) rotate(-8)">
      <path id="Path_203" data-name="Path 203" d="M12.487,20.982a4.133,4.133,0,0,1-1.04-.148C3.159,18.506-1.712,10.327.557,2.547A3.732,3.732,0,0,1,5.2.15a4.13,4.13,0,0,1,.527.19,3.757,3.757,0,0,1,.829.493L5.844,6.806a3.916,3.916,0,0,1-1.6.322q-.18,0-.359-.019L3.7,7.089l0,.175a11.066,11.066,0,0,0,1.515,4.641v.059L5.285,12a11.975,11.975,0,0,0,3.588,3.722l.146.1.083-.145a3.516,3.516,0,0,1,1.373-1.342l5.69,2.541a3.271,3.271,0,0,1,.052.787,3.6,3.6,0,0,1-3.731,3.318Z" transform="translate(0.216 0.128)" fill="none" stroke="#8dcd89" stroke-width="1"/>
      <path id="Path_204" data-name="Path 204" d="M4.262.3h0a3.846,3.846,0,0,1,.986.141,3.855,3.855,0,0,1,1.221.606L5.782,6.853a3.663,3.663,0,0,1-1.439.281A3.251,3.251,0,0,1,4,7.116l-.359-.048.032.35a11.114,11.114,0,0,0,1.5,4.624l.14.218.056.072a11.68,11.68,0,0,0,3.492,3.654l.289.193.162-.3a3.383,3.383,0,0,1,1.233-1.248l5.47,2.473a3.3,3.3,0,0,1-.088,1.417,3.488,3.488,0,0,1-3.419,2.444,3.845,3.845,0,0,1-.986-.141C3.405,18.525-1.365,10.433.858,2.736A3.491,3.491,0,0,1,4.277.3m0-.3A3.778,3.778,0,0,0,.565,2.65C-1.722,10.5,3.151,18.773,11.448,21.115a4.228,4.228,0,0,0,1.073.154,3.772,3.772,0,0,0,3.71-2.649,3.534,3.534,0,0,0,.066-1.7l-5.768-2.61A3.671,3.671,0,0,0,9.04,15.751a11.7,11.7,0,0,1-3.527-3.7h0v-.015A10.993,10.993,0,0,1,4,7.413c.124,0,.249.017.371.019A3.974,3.974,0,0,0,6.1,7.062L6.826.93A4.018,4.018,0,0,0,5.9.365a4.354,4.354,0,0,0-.544-.2A4.1,4.1,0,0,0,4.287.013Z" transform="translate(0.216 -0.002)" fill="#8dcd89" stroke="#8dcd89" stroke-width="1"/>
    </g>
  </g>
</svg>
